<svg width="465" height="91" viewBox="0 0 465 91" fill="none" xmlns="http://www.w3.org/2000/svg">
<g filter="url(#filter0_d_19_2)">
<path d="M117.173 39.4765C117.321 38.6811 117.585 38.0333 117.966 37.5333C118.347 37.0333 118.795 36.6669 119.312 36.4339C119.835 36.1953 120.384 36.0759 120.957 36.0759C121.543 36.0759 122.045 36.1981 122.466 36.4424C122.892 36.6867 123.335 37.0277 123.795 37.4652C124.136 37.7777 124.438 38.0134 124.699 38.1725C124.96 38.3259 125.261 38.4027 125.602 38.4027C126.131 38.4027 126.588 38.2294 126.974 37.8828C127.366 37.5362 127.636 37.0447 127.784 36.4083L129.182 36.4509C129.028 37.235 128.761 37.8714 128.381 38.36C128.006 38.843 127.563 39.1981 127.051 39.4254C126.545 39.647 126.014 39.7578 125.457 39.7578C124.901 39.7578 124.42 39.6384 124.017 39.3998C123.614 39.1555 123.185 38.8174 122.73 38.3856C122.389 38.0674 122.074 37.8373 121.784 37.6953C121.5 37.5532 121.17 37.4822 120.795 37.4822C120.261 37.4822 119.793 37.647 119.389 37.9765C118.986 38.3061 118.716 38.8117 118.58 39.4936L117.173 39.4765ZM147.602 38.0447C147.3 39.8458 146.721 41.4112 145.863 42.7407C145.005 44.0703 143.957 45.0987 142.718 45.8259C141.479 46.5532 140.133 46.9169 138.678 46.9169C137.184 46.9169 135.923 46.5447 134.894 45.8004C133.871 45.0504 133.147 43.9992 132.721 42.647C132.295 41.289 132.232 39.6924 132.533 37.8572C132.835 36.0561 133.414 34.4907 134.272 33.1612C135.13 31.8316 136.181 30.8032 137.425 30.0759C138.67 29.3487 140.022 28.985 141.482 28.985C142.96 28.985 144.21 29.3572 145.232 30.1015C146.255 30.8458 146.982 31.897 147.414 33.2549C147.846 34.6072 147.908 36.2038 147.602 38.0447ZM146.076 37.8572C146.337 36.3004 146.303 34.9737 145.974 33.8771C145.65 32.7805 145.093 31.9424 144.303 31.3629C143.513 30.7777 142.556 30.485 141.431 30.485C140.266 30.485 139.173 30.7862 138.15 31.3884C137.127 31.985 136.255 32.8487 135.533 33.9794C134.812 35.1044 134.317 36.4595 134.05 38.0447C133.795 39.5958 133.829 40.9225 134.153 42.0248C134.477 43.1214 135.033 43.9623 135.823 44.5475C136.619 45.1271 137.582 45.4169 138.712 45.4169C139.883 45.4169 140.979 45.1157 142.002 44.5134C143.025 43.9112 143.894 43.0475 144.61 41.9225C145.332 40.7919 145.82 39.4367 146.076 37.8572ZM163.115 29.2237L162.885 30.6555H154.277L151.618 46.6782H150.024L152.922 29.2237H163.115ZM175.292 37.3799L175.053 38.8117H167.4L167.638 37.3799H175.292ZM163.19 41.3174H164.826C164.826 42.664 165.127 43.6953 165.729 44.4112C166.332 45.1271 167.337 45.485 168.746 45.485C169.803 45.485 170.744 45.2009 171.567 44.6328C172.397 44.0646 173.082 43.2947 173.621 42.3231C174.161 41.3458 174.531 40.2492 174.729 39.0333L175.07 36.9027C175.292 35.6015 175.283 34.4652 175.045 33.4936C174.806 32.522 174.354 31.7691 173.69 31.235C173.031 30.7009 172.175 30.4367 171.124 30.4424C170.238 30.4424 169.457 30.6072 168.781 30.9367C168.11 31.2663 167.539 31.7436 167.067 32.3686C166.596 32.9936 166.215 33.7492 165.925 34.6356H164.281C164.604 33.5049 165.087 32.5163 165.729 31.6697C166.371 30.8231 167.161 30.164 168.099 29.6924C169.042 29.2208 170.119 28.985 171.329 28.985C172.704 28.985 173.837 29.3117 174.729 29.9652C175.627 30.6186 176.249 31.5362 176.596 32.718C176.948 33.8941 176.988 35.2748 176.715 36.86L176.366 39.0674C176.093 40.6697 175.59 42.0589 174.857 43.235C174.13 44.4055 173.227 45.3117 172.147 45.9538C171.073 46.5958 169.877 46.9169 168.559 46.9169C167.281 46.9169 166.238 46.6782 165.431 46.2009C164.624 45.718 164.039 45.0561 163.675 44.2152C163.312 43.3686 163.15 42.4027 163.19 41.3174ZM188.594 29.2237H190.17L187.75 43.8572H187.886L200.619 29.2237H202.196L199.298 46.6782H197.705L200.134 32.0617H199.997L187.273 46.6782H185.696L188.594 29.2237ZM203.93 46.6782L206.828 29.2237H208.422L207.092 37.2265H216.996L218.325 29.2237H219.919L217.021 46.6782H215.428L216.757 38.6583H206.854L205.524 46.6782H203.93ZM229.916 31.3714H232.294C233.555 31.3714 234.626 31.6612 235.507 32.2407C236.388 32.8146 237.021 33.6157 237.408 34.6441C237.8 35.6725 237.882 36.8629 237.655 38.2152C237.433 39.5845 236.962 40.7833 236.24 41.8117C235.518 42.8402 234.624 43.6413 233.555 44.2152C232.487 44.789 231.317 45.0759 230.044 45.0759H227.649C226.382 45.0759 225.305 44.789 224.419 44.2152C223.533 43.6356 222.893 42.8316 222.501 41.8032C222.115 40.7748 222.033 39.5816 222.254 38.2237C222.482 36.86 222.956 35.664 223.678 34.6356C224.405 33.6072 225.305 32.8061 226.379 32.2322C227.459 31.6583 228.638 31.3714 229.916 31.3714ZM229.686 32.8032C228.624 32.8032 227.686 33.0333 226.874 33.4936C226.061 33.9538 225.396 34.5958 224.879 35.4197C224.362 36.2379 224.016 37.1839 223.839 38.2578C223.675 39.3089 223.714 40.2407 223.959 41.0532C224.203 41.86 224.652 42.4936 225.305 42.9538C225.959 43.414 226.82 43.6441 227.888 43.6441H230.266C231.322 43.6441 232.254 43.414 233.061 42.9538C233.874 42.4936 234.536 41.8572 235.047 41.0447C235.558 40.2265 235.896 39.2833 236.061 38.2152C236.237 37.1527 236.206 36.2152 235.967 35.4027C235.729 34.5902 235.283 33.9538 234.629 33.4936C233.976 33.0333 233.112 32.8032 232.038 32.8032H229.686ZM232.311 28.9169L229.26 47.3941H227.675L230.717 28.9169H232.311ZM255.859 38.0447C255.558 39.8458 254.979 41.4112 254.121 42.7407C253.263 44.0703 252.214 45.0987 250.976 45.8259C249.737 46.5532 248.391 46.9169 246.936 46.9169C245.442 46.9169 244.18 46.5447 243.152 45.8004C242.129 45.0504 241.405 43.9992 240.979 42.647C240.553 41.289 240.49 39.6924 240.791 37.8572C241.092 36.0561 241.672 34.4907 242.53 33.1612C243.388 31.8316 244.439 30.8032 245.683 30.0759C246.928 29.3487 248.28 28.985 249.74 28.985C251.217 28.985 252.467 29.3572 253.49 30.1015C254.513 30.8458 255.24 31.897 255.672 33.2549C256.104 34.6072 256.166 36.2038 255.859 38.0447ZM254.334 37.8572C254.595 36.3004 254.561 34.9737 254.232 33.8771C253.908 32.7805 253.351 31.9424 252.561 31.3629C251.771 30.7777 250.814 30.485 249.689 30.485C248.524 30.485 247.43 30.7862 246.408 31.3884C245.385 31.985 244.513 32.8487 243.791 33.9794C243.07 35.1044 242.575 36.4595 242.308 38.0447C242.053 39.5958 242.087 40.9225 242.411 42.0248C242.734 43.1214 243.291 43.9623 244.081 44.5475C244.876 45.1271 245.839 45.4169 246.97 45.4169C248.141 45.4169 249.237 45.1157 250.26 44.5134C251.283 43.9112 252.152 43.0475 252.868 41.9225C253.589 40.7919 254.078 39.4367 254.334 37.8572ZM258.282 46.6782L261.18 29.2237H266.813C268.052 29.2237 269.049 29.4595 269.805 29.9311C270.56 30.4027 271.08 31.0447 271.364 31.8572C271.654 32.6697 271.714 33.5873 271.543 34.61C271.379 35.6214 271.015 36.5362 270.452 37.3544C269.896 38.1669 269.16 38.8117 268.245 39.289C267.336 39.7663 266.268 40.0049 265.04 40.0049H260.609L260.847 38.5731H265.237C266.151 38.5731 266.938 38.4027 267.597 38.0617C268.262 37.7152 268.793 37.2436 269.191 36.647C269.589 36.0447 269.85 35.3657 269.975 34.61C270.1 33.843 270.06 33.1612 269.856 32.5646C269.657 31.968 269.282 31.5021 268.731 31.1669C268.185 30.8259 267.452 30.6555 266.532 30.6555H262.535L259.876 46.6782H258.282ZM276.18 29.2237H278.021L281.839 44.4282H282.001L290.839 29.2237H292.68L289.782 46.6782H288.282L290.634 32.5902H290.498L282.256 46.6782H280.808L277.271 32.5902H277.134L274.782 46.6782H273.282L276.18 29.2237ZM294.448 46.6782H292.778L302.025 29.2237H303.729L307.181 46.6782H305.511L302.604 31.2947H302.494L294.448 46.6782ZM296.766 39.9879H305.425L305.187 41.4197H296.528L296.766 39.9879ZM309.736 30.6555L309.974 29.2237H322.631L322.392 30.6555H316.861L314.202 46.6782H312.608L315.267 30.6555H309.736ZM326.219 29.2237H327.795L325.375 43.8572H325.511L338.244 29.2237H339.821L336.923 46.6782H335.33L337.759 32.0617H337.622L324.898 46.6782H323.321L326.219 29.2237ZM351.689 46.6782L347.053 38.4453H344.513L343.149 46.6782H341.555L344.453 29.2237H346.047L344.751 37.022H346.32L354.041 29.2237H355.95L348.186 37.0902L353.581 46.6782H351.689ZM356.604 46.6782H354.934L364.181 29.2237H365.886L369.337 46.6782H367.667L364.761 31.2947H364.65L356.604 46.6782ZM358.923 39.9879H367.582L367.343 41.4197H358.684L358.923 39.9879Z" fill="black"/>
</g>
<path d="M27.6039 39.3808C27.6039 46.0138 21.5052 51.3909 13.9821 51.3909C6.459 51.3909 2.10669 47.3864 2.10669 40.7533C2.10669 34.1203 8.20538 28.7432 15.7285 28.7432C23.2516 28.7432 27.6039 32.7477 27.6039 39.3808Z" fill="#FFBDD4"/>
<ellipse cx="33.8909" cy="29.7722" rx="15.7175" ry="14.0691" fill="#FFBDD4"/>
<ellipse cx="33.8909" cy="29.7722" rx="15.7175" ry="14.0691" fill="#FFBDD4"/>
<ellipse cx="33.8909" cy="29.7722" rx="15.7175" ry="14.0691" fill="#FFBDD4"/>
<ellipse cx="49.9577" cy="17.4192" rx="15.7175" ry="14.0691" fill="#FFBDD4"/>
<ellipse cx="68.1201" cy="27.7134" rx="15.7175" ry="14.0691" fill="#FFBDD4"/>
<ellipse cx="88.0289" cy="38.3511" rx="13.9711" ry="13.0396" fill="#FFBDD4"/>
<rect x="16.7764" y="30.1155" width="67.0612" height="18.53" fill="#FFBDD4"/>
<path d="M10.4894 39.0374H92.9188H86.9811L88.0289 51.3907H13.6329L10.4894 39.0374Z" fill="#FFBDD4"/>
<path d="M66.0244 13.9878L61.4838 15.0172L58.3403 17.7624" stroke="#FFBDD4" stroke-width="4" stroke-linecap="round"/>
<path d="M33.8909 16.0465C38.6321 15.1503 40.2355 15.9406 41.9243 18.7917" stroke="#FFBDD4" stroke-width="4" stroke-linecap="round"/>
<path d="M34.2403 15.0171C34.0229 17.7467 34.0665 19.0349 34.9388 20.1643" stroke="#E83B44" stroke-width="4" stroke-linecap="round"/>
<path d="M18.1734 29.0862C17.3584 28.8574 15.3793 28.743 14.3314 28.743M14.3314 28.743C12.8913 28.743 11.5795 29.1866 10.8386 29.4293M14.3314 28.743L10.8386 29.4293M10.8386 29.4293C9.79082 29.7724 6.29805 32.1745 4.90088 33.5471C4.34861 34.0896 1.40811 38.6943 2.10666 40.7532L2.80527 44.5278L4.90088 48.3024L8.39371 50.3613L12.2358 51.3908H89.0767L93.6173 50.3613L97.4594 47.9593L99.5551 45.5573L101.301 42.8121L102 40.41V37.3217L101.651 34.9197L100.254 32.1745L99.2058 30.4587L97.4594 28.743L96.4116 27.7136L94.3159 26.6841L92.9188 26.2919L92.2202 26.0959L89.426 25.3115" stroke="#E83B44" stroke-width="4"/>
<path d="M92.2202 25.9977C92.7791 25.9977 90.3574 25.5402 89.0767 25.3115H86.2825L84.1869 25.8997M83.8376 25.9977L84.1869 25.8997M84.1869 25.8997L82.4658 22.5663M80.6941 19.1348L81.9343 21.5368L82.4658 22.5663M80.6941 19.1348C81.3926 20.2786 82.725 22.5663 82.4658 22.5663M80.6941 19.1348L78.9477 17.4191M76.852 16.0465L78.9477 17.4191M78.9477 17.4191L75.8042 15.3602L73.7085 14.3307L71.6129 13.9876L67.7708 13.6444L65.3259 13.9876L63.9288 10.8992L61.8331 8.15406L59.3882 6.09517L56.594 4.37943L53.4505 3.69313L50.307 3.00684L47.1635 3.69313L44.02 4.37943L41.2258 5.40887L38.7808 7.46776L37.0344 9.1835L35.6373 11.9287L34.5895 13.6444L34.2402 15.3602V15.7033L31.0967 16.0465L28.3025 16.6565M27.9532 16.7328L28.3025 16.6565M28.3025 16.6565L25.5083 17.7622M23.4126 19.4779L25.5083 17.7622M25.5083 17.7622L23.0633 19.4779L21.317 21.1937L19.9198 23.2526L18.5227 25.9977L18.1735 29.0861" stroke="#D6005A" stroke-opacity="0.89" stroke-width="4"/>
<path d="M18.2907 27.3704C16.9484 30.2478 17.2388 31.7423 19.3385 34.2333" stroke="#E83B44" stroke-width="4" stroke-linecap="round"/>
<path d="M83.8376 24.9683L85.9332 29.4292V32.5175" stroke="#E83B44" stroke-width="4" stroke-linecap="round"/>
<path d="M29.3503 35.1108C32.8247 26.9546 36.72 25.4102 46.8142 27.5615" stroke="url(#paint0_linear_19_2)" stroke-width="4" stroke-linecap="round"/>
<path d="M71.9622 34.2489C80.9969 34.0285 84.4048 36.0718 87.3304 43.5139" stroke="url(#paint1_linear_19_2)" stroke-width="4" stroke-linecap="round"/>
<path d="M22.9549 58.9542V77.136H20.7532V61.2624H20.6466L16.2077 64.2098V61.9726L20.7532 58.9542H22.9549Z" fill="url(#paint2_linear_19_2)"/>
<path d="M89.5544 84.2474C88.2168 84.2474 87.0775 83.8834 86.1365 83.1554C85.1954 82.4215 84.4763 81.3591 83.9792 79.9682C83.482 78.5715 83.2334 76.8847 83.2334 74.9079C83.2334 72.9429 83.482 71.265 83.9792 69.8741C84.4822 68.4774 85.2043 67.412 86.1454 66.6781C87.0923 65.9383 88.2287 65.5684 89.5544 65.5684C90.8802 65.5684 92.0136 65.9383 92.9547 66.6781C93.9016 67.412 94.6237 68.4774 95.1208 69.8741C95.6239 71.265 95.8755 72.9429 95.8755 74.9079C95.8755 76.8847 95.6269 78.5715 95.1297 79.9682C94.6326 81.3591 93.9135 82.4215 92.9724 83.1554C92.0314 83.8834 90.892 84.2474 89.5544 84.2474ZM89.5544 82.2942C90.8802 82.2942 91.91 81.655 92.6439 80.3766C93.3778 79.0982 93.7448 77.2753 93.7448 74.9079C93.7448 73.3335 93.5761 71.993 93.2387 70.8862C92.9073 69.7794 92.4279 68.936 91.8005 68.356C91.1791 67.776 90.4304 67.486 89.5544 67.486C88.2405 67.486 87.2137 68.1341 86.4738 69.4302C85.734 70.7205 85.3641 72.5464 85.3641 74.9079C85.3641 76.4822 85.5298 77.8198 85.8613 78.9207C86.1927 80.0215 86.6691 80.859 87.2906 81.4331C87.918 82.0072 88.6726 82.2942 89.5544 82.2942Z" fill="url(#paint3_linear_19_2)"/>
<path d="M70.4565 56.2088V74.3906H68.2548V58.517H68.1483L63.7094 61.4645V59.2273L68.2548 56.2088H70.4565Z" fill="url(#paint4_linear_19_2)"/>
<path d="M43.4498 90.4239C42.1122 90.4239 40.9729 90.0599 40.0319 89.3319C39.0908 88.598 38.3717 87.5356 37.8745 86.1448C37.3774 84.748 37.1288 83.0612 37.1288 81.0844C37.1288 79.1194 37.3774 77.4415 37.8745 76.0506C38.3776 74.6539 39.0997 73.5885 40.0407 72.8546C40.9877 72.1148 42.1241 71.7449 43.4498 71.7449C44.7756 71.7449 45.909 72.1148 46.85 72.8546C47.797 73.5885 48.5191 74.6539 49.0162 76.0506C49.5193 77.4415 49.7709 79.1194 49.7709 81.0844C49.7709 83.0612 49.5223 84.748 49.0251 86.1448C48.528 87.5356 47.8088 88.598 46.8678 89.3319C45.9267 90.0599 44.7874 90.4239 43.4498 90.4239ZM43.4498 88.4707C44.7756 88.4707 45.8054 87.8315 46.5393 86.5531C47.2732 85.2747 47.6402 83.4518 47.6402 81.0844C47.6402 79.51 47.4715 78.1695 47.1341 77.0627C46.8027 75.956 46.3233 75.1126 45.6959 74.5325C45.0745 73.9525 44.3258 73.6625 43.4498 73.6625C42.1359 73.6625 41.109 74.3106 40.3692 75.6068C39.6294 76.897 39.2595 78.7229 39.2595 81.0844C39.2595 82.6587 39.4252 83.9963 39.7566 85.0972C40.0881 86.198 40.5645 87.0355 41.186 87.6096C41.8133 88.1837 42.568 88.4707 43.4498 88.4707Z" fill="url(#paint5_linear_19_2)"/>
<path d="M65.6751 13.9878C63.2313 14.2994 61.9244 14.7267 59.7374 16.0467" stroke="#E83B44" stroke-width="4" stroke-linecap="round"/>
<defs>
<filter id="filter0_d_19_2" x="113.173" y="28.9167" width="260.164" height="26.4773" filterUnits="userSpaceOnUse" color-interpolation-filters="sRGB">
<feFlood flood-opacity="0" result="BackgroundImageFix"/>
<feColorMatrix in="SourceAlpha" type="matrix" values="0 0 0 0 0 0 0 0 0 0 0 0 0 0 0 0 0 0 127 0" result="hardAlpha"/>
<feOffset dy="4"/>
<feGaussianBlur stdDeviation="2"/>
<feComposite in2="hardAlpha" operator="out"/>
<feColorMatrix type="matrix" values="0 0 0 0 0 0 0 0 0 0 0 0 0 0 0 0 0 0 0.25 0"/>
<feBlend mode="normal" in2="BackgroundImageFix" result="effect1_dropShadow_19_2"/>
<feBlend mode="normal" in="SourceGraphic" in2="effect1_dropShadow_19_2" result="shape"/>
</filter>
<linearGradient id="paint0_linear_19_2" x1="38.0823" y1="26.6841" x2="38.0823" y2="35.1108" gradientUnits="userSpaceOnUse">
<stop stop-color="#D6005A"/>
<stop offset="0.0001" stop-color="#D91064" stop-opacity="0.942051"/>
<stop offset="0.9999" stop-color="white" stop-opacity="0.0729167"/>
<stop offset="1" stop-color="#D6005A" stop-opacity="0"/>
</linearGradient>
<linearGradient id="paint1_linear_19_2" x1="79.6463" y1="34.2332" x2="79.6463" y2="43.5139" gradientUnits="userSpaceOnUse">
<stop stop-color="#D6005A"/>
<stop offset="0.427083" stop-color="white" stop-opacity="0"/>
</linearGradient>
<linearGradient id="paint2_linear_19_2" x1="34.5895" y1="51.602" x2="26.3465" y2="77.6868" gradientUnits="userSpaceOnUse">
<stop offset="0.677083" stop-color="#0F19F8" stop-opacity="0.83"/>
<stop offset="1" stop-color="#00C5E0" stop-opacity="0"/>
</linearGradient>
<linearGradient id="paint3_linear_19_2" x1="101.651" y1="58.4648" x2="93.4077" y2="84.5496" gradientUnits="userSpaceOnUse">
<stop offset="0.677083" stop-color="#0F19F8" stop-opacity="0.83"/>
<stop offset="1" stop-color="#00C5E0" stop-opacity="0"/>
</linearGradient>
<linearGradient id="paint4_linear_19_2" x1="82.0912" y1="48.8566" x2="73.8481" y2="74.9415" gradientUnits="userSpaceOnUse">
<stop offset="0.677083" stop-color="#0F19F8" stop-opacity="0.83"/>
<stop offset="1" stop-color="#00C5E0" stop-opacity="0"/>
</linearGradient>
<linearGradient id="paint5_linear_19_2" x1="55.5461" y1="64.6413" x2="47.3031" y2="90.7261" gradientUnits="userSpaceOnUse">
<stop offset="0.677083" stop-color="#0F19F8" stop-opacity="0.83"/>
<stop offset="1" stop-color="#00C5E0" stop-opacity="0"/>
</linearGradient>
</defs>
</svg>
