<svg width="65" height="65" viewBox="0 0 65 65" fill="none" xmlns="http://www.w3.org/2000/svg">
<path d="M45.9792 19.0892C45.9792 19.0892 48.9857 17.9169 48.7352 20.764C48.6517 21.9363 47.9001 26.0394 47.3155 30.4775L45.3111 43.6243C45.3111 43.6243 45.1441 45.5503 43.6409 45.8852C42.1376 46.2202 39.8828 44.713 39.4651 44.3779C39.1311 44.1268 33.2017 40.3585 31.1138 38.5163C30.5292 38.0139 29.8611 37.009 31.1973 35.8367L39.9663 27.463C40.9685 26.4582 41.9706 24.1135 37.7949 26.9605L26.103 34.9156C26.103 34.9156 24.7668 35.753 22.2614 34.9994L16.833 33.3246C16.833 33.3246 14.8286 32.0686 18.2527 30.8124C26.6041 26.8768 36.8763 22.8574 45.9792 19.0892Z" fill="black"/>
</svg>
